<svg width="54" height="53" viewBox="0 0 54 53" fill="none" xmlns="http://www.w3.org/2000/svg">
<path d="M27 13.9082C25.5603 13.9082 24.1795 14.4561 23.1614 15.4312C22.1434 16.4064 21.5714 17.7291 21.5714 19.1082V26.9082C21.5714 28.2873 22.1434 29.61 23.1614 30.5852C24.1795 31.5603 25.5603 32.1082 27 32.1082C28.4397 32.1082 29.8205 31.5603 30.8386 30.5852C31.8566 29.61 32.4286 28.2873 32.4286 26.9082V19.1082C32.4286 17.7291 31.8566 16.4064 30.8386 15.4312C29.8205 14.4561 28.4397 13.9082 27 13.9082ZM27.6786 35.823C32.6084 35.4895 36.5 31.5525 36.5 26.7457C36.5 26.5302 36.4106 26.3236 36.2516 26.1712C36.0925 26.0188 35.8767 25.9332 35.6518 25.9332C35.4268 25.9332 35.2111 26.0188 35.052 26.1712C34.8929 26.3236 34.8036 26.5302 34.8036 26.7457C34.8036 30.8739 31.3096 34.2207 27 34.2207C22.6904 34.2207 19.1964 30.8739 19.1964 26.7457C19.1964 26.5302 19.1071 26.3236 18.948 26.1712C18.7889 26.0188 18.5732 25.9332 18.3482 25.9332C18.1233 25.9332 17.9075 26.0188 17.7484 26.1712C17.5894 26.3236 17.5 26.5302 17.5 26.7457C17.5 31.442 21.2138 35.3075 25.9821 35.7937V39.0957C25.9821 39.3112 26.0715 39.5179 26.2306 39.6702C26.3896 39.8226 26.6054 39.9082 26.8304 39.9082C27.0553 39.9082 27.2711 39.8226 27.4301 39.6702C27.5892 39.5179 27.6786 39.3112 27.6786 39.0957V35.823Z" fill="#1E1E1E"/>
</svg>
