<svg width="1341" height="800" viewBox="0 0 1341 800" fill="none" xmlns="http://www.w3.org/2000/svg">
<g clip-path="url(#clip0_4193_14111)">
<rect width="1341" height="800" fill="#F9F9F9"/>
<path d="M1479 1039.43L1479 188L-10.9989 188L-10.9989 1039.43L1479 1039.43Z" fill="#F9F9F9"/>
<mask id="mask0_4193_14111" style="mask-type:luminance" maskUnits="userSpaceOnUse" x="-11" y="188" width="1488" height="528">
<path d="M1474.91 188C1462.36 202.02 1449.93 216.748 1437.66 232.428C1278.64 435.616 1129.67 520.454 977.835 541.566C825.972 562.682 671.163 520.063 500.534 468.343C376.253 430.673 283.708 422.204 216.903 431.389C174.117 437.272 141.872 450.396 118.598 467.73C95.2925 485.087 80.9751 506.669 74.0743 529.437C69.0069 546.157 67.9389 563.513 70.2471 580.3C76.3807 624.91 56.0279 662.328 21.1473 691.616C11.4656 699.746 0.665993 707.249 -10.9968 714.108L-10.9968 715.431C0.942726 708.45 11.9942 700.798 21.883 692.494C57.0561 662.96 77.5747 625.201 71.3795 580.145C69.092 563.512 70.1487 546.322 75.1666 529.767C81.9989 507.226 96.1836 485.852 119.283 468.648C142.413 451.421 174.483 438.376 217.058 432.521C283.718 423.356 376.099 431.818 500.205 469.435C670.964 521.195 825.899 563.844 977.995 542.697C1130.12 521.545 1279.33 436.588 1438.56 233.132C1451.04 217.188 1463.69 202.225 1476.44 188L1474.91 188Z" fill="white"/>
</mask>
<g mask="url(#mask0_4193_14111)">
<path d="M1476.44 715.431L1476.44 188L-10.9969 188L-10.997 715.431L1476.44 715.431Z" fill="url(#paint0_linear_4193_14111)" fill-opacity="0.2"/>
</g>
<mask id="mask1_4193_14111" style="mask-type:luminance" maskUnits="userSpaceOnUse" x="-11" y="210" width="1490" height="484">
<path d="M1479 210.27C1463.96 225.837 1449.04 242.441 1434.3 260.245C1269.74 458.974 1118.49 539.675 966.133 556.595C813.745 573.518 660.17 526.65 491.033 470.249C367.836 429.168 275.559 418.152 208.526 425.494C165.598 430.195 133.003 442.426 109.258 459.113C85.4808 475.823 70.5752 497.002 63.0498 519.569C57.5232 536.144 55.9768 553.464 57.8219 570.309C62.7247 615.073 41.3493 651.915 5.67564 680.23C0.415507 684.405 -5.15566 688.396 -10.9988 692.199L-10.9988 693.558C-4.89895 689.615 0.911722 685.471 6.38584 681.127C42.3598 652.572 63.9122 615.393 58.9607 570.184C57.1326 553.494 58.6621 536.339 64.1334 519.931C71.5845 497.586 86.3525 476.609 109.915 460.051C133.51 443.468 165.927 431.311 208.651 426.633C275.539 419.307 367.651 430.31 490.672 471.333C659.941 527.778 813.643 574.682 966.263 557.733C1118.91 540.781 1270.4 459.968 1435.18 260.976C1449.64 243.52 1464.26 227.235 1479 211.934L1479 210.27Z" fill="white"/>
</mask>
<g mask="url(#mask1_4193_14111)">
<path d="M1479 693.558L1479 210.27L-10.9989 210.269L-10.9989 693.557L1479 693.558Z" fill="url(#paint1_linear_4193_14111)" fill-opacity="0.2"/>
</g>
<mask id="mask2_4193_14111" style="mask-type:luminance" maskUnits="userSpaceOnUse" x="-11" y="237" width="1490" height="435">
<path d="M1479 237.123C1462.75 252.914 1446.61 269.898 1430.62 288.16C1260.65 482.278 1107.24 558.781 954.466 571.497C801.673 584.215 649.447 533.133 481.925 472.092C359.909 427.632 267.97 414.079 200.757 419.57C157.714 423.087 124.795 434.415 100.602 450.44C76.3727 466.489 60.8893 487.249 52.7447 509.6C46.7641 526.013 44.743 543.285 46.1229 560.179C49.7897 605.06 27.4076 641.297 -9.03347 668.621C-9.68386 669.108 -10.3394 669.592 -10.9989 670.075L-10.9989 671.483C-10.109 670.838 -9.22426 670.19 -8.35036 669.534C28.3974 641.981 50.9651 605.411 47.2615 560.081C45.8943 543.351 47.8962 526.246 53.8186 509.992C61.8834 487.86 77.2229 467.299 101.233 451.395C125.277 435.469 158.018 424.209 200.854 420.709C267.914 415.229 359.686 428.767 481.533 473.165C649.181 534.253 801.531 585.372 954.563 572.635C1107.62 559.896 1261.28 483.287 1431.48 288.911C1447.19 270.972 1463.05 254.282 1479 238.732L1479 237.123Z" fill="white"/>
</mask>
<g mask="url(#mask2_4193_14111)">
<path d="M1479 671.483L1479 237.123L-10.9989 237.123L-10.9989 671.483L1479 671.483Z" fill="url(#paint2_linear_4193_14111)" fill-opacity="0.2"/>
</g>
<mask id="mask3_4193_14111" style="mask-type:luminance" maskUnits="userSpaceOnUse" x="-11" y="264" width="1490" height="386">
<path d="M1479 264.139C1461.45 280.146 1443.97 297.421 1426.62 316.166C1251.36 505.53 1095.9 577.776 942.835 586.278C789.747 594.78 638.986 539.524 473.211 473.89C352.466 426.085 260.936 410.003 193.597 413.641C150.476 415.97 117.258 426.387 92.6312 441.739C67.968 457.115 51.9183 477.44 43.1616 499.558C36.7307 515.801 34.234 533.01 35.1483 549.933C37.3039 589.85 19.1236 622.393 -10.9994 647.603L-10.9994 649.093C19.8282 623.579 38.4839 590.523 36.2883 549.869C35.3823 533.106 37.855 516.062 44.2224 499.979C52.894 478.077 68.7945 457.945 93.2325 442.71C117.706 427.452 150.745 417.099 193.662 414.781C260.849 411.152 352.214 427.213 472.791 474.951C638.693 540.635 789.577 595.934 942.899 587.418C1096.25 578.901 1251.97 506.556 1427.46 316.944C1444.53 298.497 1461.73 281.465 1479 265.675L1479 264.139L1479 264.139Z" fill="white"/>
</mask>
<g mask="url(#mask3_4193_14111)">
<path d="M1479 649.093L1479 264.139L-10.9989 264.139L-10.9989 649.093L1479 649.093Z" fill="url(#paint3_linear_4193_14111)" fill-opacity="0.2"/>
</g>
<mask id="mask4_4193_14111" style="mask-type:luminance" maskUnits="userSpaceOnUse" x="-11" y="291" width="1490" height="336">
<path d="M1479 291.215C1460.04 307.421 1441.11 325.004 1422.28 344.251C1241.88 528.711 1084.48 596.647 931.242 600.927C777.978 605.209 628.798 545.819 464.895 475.642C345.516 424.53 254.463 405.932 187.048 407.714C143.876 408.854 110.383 418.35 85.3441 433.018C60.2661 447.709 43.6605 467.584 34.2986 489.452C27.4241 505.509 24.4538 522.643 24.9022 539.588C25.8013 573.615 12.1063 601.891 -10.9988 624.584L-10.9988 626.186C12.8099 603.153 26.9615 574.337 26.0428 539.556C25.5987 522.777 28.5409 505.808 35.3505 489.904C44.6216 468.248 61.071 448.562 85.9186 434.007C110.805 419.428 144.117 409.99 187.079 408.855C254.339 407.078 345.227 425.651 464.443 476.695C628.473 546.925 777.777 606.361 931.275 602.073C1084.8 597.784 1242.45 529.756 1423.1 345.051C1441.65 326.079 1460.31 308.723 1479 292.711L1479 291.215Z" fill="white"/>
</mask>
<g mask="url(#mask4_4193_14111)">
<path d="M1479 626.185L1479 291.215L-10.9989 291.215L-10.9989 626.185L1479 626.185Z" fill="url(#paint4_linear_4193_14111)" fill-opacity="0.2"/>
</g>
<mask id="mask5_4193_14111" style="mask-type:luminance" maskUnits="userSpaceOnUse" x="-11" y="318" width="1490" height="299">
<path d="M1479 318.377C1458.52 334.752 1438.04 352.653 1417.62 372.412C1232.19 551.833 1072.99 615.406 919.691 615.463C766.372 615.519 618.882 552.041 456.972 477.374C339.045 422.99 248.539 401.891 181.101 401.813C137.917 401.764 104.176 410.334 78.7397 424.308C53.2662 438.301 36.1201 457.712 26.1597 479.312C18.8445 495.174 15.4034 512.22 15.384 529.169C15.3519 557.101 5.60289 580.89 -10.9994 600.71L-10.9994 602.485C6.3026 582.269 16.4935 557.894 16.5259 529.17C16.5449 512.383 19.9534 495.502 27.198 479.792C37.0625 458.4 54.0481 439.174 79.2864 425.309C104.563 411.424 138.121 402.906 181.1 402.956C248.384 403.033 338.726 424.103 456.492 478.412C618.522 553.134 766.13 616.66 919.692 616.604C1073.28 616.547 1232.74 552.89 1418.41 373.233C1438.57 353.729 1458.79 336.039 1479 319.839L1479 318.377Z" fill="white"/>
</mask>
<g mask="url(#mask5_4193_14111)">
<path d="M1479 616.66L1479 318.377L-10.9989 318.377L-10.9989 616.66L1479 616.66Z" fill="url(#paint5_linear_4193_14111)" fill-opacity="0.2"/>
</g>
<mask id="mask6_4193_14111" style="mask-type:luminance" maskUnits="userSpaceOnUse" x="-11" y="345" width="1490" height="287">
<path d="M1479 345.637C1456.91 362.138 1434.76 380.363 1412.62 400.631C1222.32 574.873 1061.43 634.035 908.185 629.868C754.919 625.7 609.236 558.182 449.448 479.083C333.062 421.47 243.172 397.885 175.764 395.949C132.596 394.71 98.6315 402.347 72.8217 415.614C46.9735 428.899 29.2999 447.831 18.7461 469.15C10.9966 484.807 7.08593 501.752 6.59948 518.693C5.98229 540.175 -0.318735 559.047 -10.9993 575.424L-10.9993 577.506C0.373404 560.629 7.10082 541.079 7.74291 518.722C8.22472 501.943 12.0961 485.16 19.7703 469.658C30.2201 448.548 47.7284 429.799 73.3411 416.634C98.9928 403.449 132.773 395.859 175.734 397.093C242.991 399.023 332.718 422.575 448.94 480.107C608.851 559.266 754.654 626.837 908.156 631.011C1061.68 635.186 1222.84 575.948 1413.39 401.474C1435.27 381.441 1457.16 363.414 1479 347.069L1479 345.637Z" fill="white"/>
</mask>
<g mask="url(#mask6_4193_14111)">
<path d="M1479 635.186L1479 345.637L-10.9989 345.637L-10.9989 635.186L1479 635.186Z" fill="url(#paint6_linear_4193_14111)" fill-opacity="0.2"/>
</g>
<mask id="mask7_4193_14111" style="mask-type:luminance" maskUnits="userSpaceOnUse" x="-11" y="373" width="1490" height="274">
<path d="M1479 373.018C1455.19 389.589 1431.26 408.137 1407.29 428.903C1212.26 597.836 1049.8 652.542 896.73 644.154C743.636 635.763 599.868 564.257 442.321 480.786C327.569 419.989 238.363 393.937 171.032 390.144C127.916 387.716 93.7537 394.414 67.5865 406.965C41.3801 419.535 23.1909 437.971 12.0554 458.99C3.87756 474.425 -0.496709 491.255 -1.44959 508.177C-2.25733 522.514 -5.57154 535.616 -10.9993 547.528L-10.9993 550.231C-4.89808 537.608 -1.17689 523.631 -0.309942 508.241C0.633784 491.481 4.96643 474.813 13.0655 459.526C24.0942 438.71 42.1124 420.449 68.0764 407.995C94.0804 395.523 128.058 388.867 170.969 391.284C238.146 395.068 327.19 421.083 441.784 481.796C599.455 565.332 743.34 636.895 896.668 645.298C1050.02 653.702 1212.75 598.925 1408.04 429.769C1431.76 409.219 1455.44 390.857 1479 374.422L1479 373.018L1479 373.018Z" fill="white"/>
</mask>
<g mask="url(#mask7_4193_14111)">
<path d="M1479 653.702L1479 373.018L-10.9989 373.018L-10.9989 653.702L1479 653.702Z" fill="url(#paint7_linear_4193_14111)" fill-opacity="0.2"/>
</g>
<mask id="mask8_4193_14111" style="mask-type:luminance" maskUnits="userSpaceOnUse" x="-11" y="383" width="1490" height="279">
<path d="M1479 400.647C1453.38 417.225 1427.56 435.974 1401.62 457.221C1202.02 620.717 1038.1 670.926 885.325 658.322C732.523 645.718 590.781 570.277 435.592 482.496C322.556 418.557 234.102 390.056 166.904 384.411C123.871 380.796 89.5372 386.551 63.0328 398.377C36.4906 410.219 17.8008 428.148 6.08947 448.851C-2.51184 464.057 -7.34803 480.761 -8.76758 497.648C-9.19825 502.779 -9.9502 507.741 -10.9989 512.54L-10.9989 517.435C-9.34302 511.164 -8.20264 504.604 -7.6261 497.744C-6.22046 481.015 -1.43103 464.471 7.08459 449.416C18.6827 428.912 37.1979 411.155 63.4955 399.421C89.8312 387.67 123.977 381.954 166.807 385.552C233.857 391.185 322.151 419.643 435.028 483.491C590.334 571.339 732.193 646.837 885.233 659.462C1038.3 672.089 1202.48 621.818 1402.35 458.108C1428.04 437.061 1453.62 418.46 1479 402.003L1479 400.647Z" fill="white"/>
</mask>
<g mask="url(#mask8_4193_14111)">
<path d="M1479 672.088L1479 380.795L-10.9989 380.795L-10.9989 672.088L1479 672.088Z" fill="url(#paint8_linear_4193_14111)" fill-opacity="0.2"/>
</g>
<mask id="mask9_4193_14111" style="mask-type:luminance" maskUnits="userSpaceOnUse" x="-11" y="376" width="1490" height="301">
<path d="M1479 428.489C1451.48 444.997 1423.65 463.875 1395.62 485.575C1191.58 643.507 1026.35 689.18 873.978 672.373C721.579 655.562 581.968 576.245 429.257 484.22C318.027 417.193 230.391 386.265 163.374 378.77C120.457 373.971 85.9773 378.777 59.1598 389.866C32.3019 400.973 13.1262 418.38 0.847898 438.755C-4.29102 447.283 -8.22046 456.33 -10.9989 465.653L-10.9989 469.899C-8.22498 459.283 -3.97754 448.978 1.82727 439.345C13.984 419.17 32.9803 401.931 59.5933 390.925C86.2454 379.903 120.537 375.13 163.248 379.907C230.117 387.385 317.593 418.266 428.668 485.2C581.496 577.294 721.22 656.673 873.852 673.509C1026.51 690.348 1192.01 644.62 1396.32 486.478C1424.12 464.961 1451.7 446.223 1479 429.82L1479 428.489L1479 428.489Z" fill="white"/>
</mask>
<g mask="url(#mask9_4193_14111)">
<path d="M1479 690.347L1479 373.969L-10.9989 373.969L-10.9989 690.347L1479 690.347Z" fill="url(#paint9_linear_4193_14111)" fill-opacity="0.2"/>
</g>
<mask id="mask10_4193_14111" style="mask-type:luminance" maskUnits="userSpaceOnUse" x="-11" y="370" width="1490" height="323">
<path d="M1479 456.501C1449.48 472.85 1419.54 491.833 1389.28 513.95C1180.97 666.2 1014.54 707.303 862.688 686.303C710.811 665.299 573.439 582.165 423.322 485.968C313.982 415.901 227.231 382.571 160.444 373.232C117.678 367.251 83.0786 371.106 55.9641 381.453C28.8107 391.815 9.16162 408.686 -3.67273 428.715C-6.42664 433.012 -8.86621 437.455 -10.9989 442.01L-10.9989 444.767C-8.65247 439.46 -5.8938 434.298 -2.71155 429.333C9.99805 409.499 29.4639 392.789 56.3682 382.522C83.313 372.239 117.724 368.413 160.29 374.365C226.926 383.683 313.517 416.961 422.704 486.93C572.937 583.201 710.422 666.4 862.533 687.436C1014.67 708.475 1181.37 667.324 1389.95 514.872C1419.98 492.922 1449.69 474.068 1479 457.81L1479 456.501L1479 456.501Z" fill="white"/>
</mask>
<g mask="url(#mask10_4193_14111)">
<path d="M1479 708.478L1479 367.254L-10.9989 367.254L-10.9989 708.478L1479 708.478Z" fill="url(#paint10_linear_4193_14111)" fill-opacity="0.2"/>
</g>
<mask id="mask11_4193_14111" style="mask-type:luminance" maskUnits="userSpaceOnUse" x="-11" y="363" width="1490" height="346">
<path d="M1479 484.707C1447.39 500.796 1415.22 519.859 1382.6 542.346C1170.18 688.798 1002.68 725.299 851.46 700.123C700.22 674.944 565.191 588.055 417.781 487.759C310.411 414.705 224.613 378.996 158.111 367.819C115.526 360.664 80.834 363.564 53.4425 373.161C26.014 382.771 5.90698 399.095 -7.47449 418.762C-8.70606 420.572 -9.88074 422.41 -10.9993 424.274L-10.9993 426.532C-9.60401 424.112 -8.11402 421.735 -6.52906 419.405C6.72217 399.929 26.6401 383.761 53.8171 374.239C81.0336 364.704 115.534 361.828 157.922 368.95C224.278 380.102 309.92 415.754 417.138 488.704C564.661 589.077 699.8 676.033 851.275 701.252C1002.77 726.475 1170.54 689.933 1383.25 543.286C1415.65 520.951 1447.6 502.008 1479 485.996L1479 484.707Z" fill="white"/>
</mask>
<g mask="url(#mask11_4193_14111)">
<path d="M1479 726.472L1479 360.66L-10.9989 360.66L-10.9989 726.472L1479 726.472Z" fill="url(#paint11_linear_4193_14111)" fill-opacity="0.2"/>
</g>
<mask id="mask12_4193_14111" style="mask-type:luminance" maskUnits="userSpaceOnUse" x="-11" y="357" width="1490" height="368">
<path d="M1479 513.237C1445.21 528.957 1410.7 547.936 1375.58 570.745C1159.2 711.29 990.762 743.163 840.297 713.83C689.81 684.492 557.226 593.915 412.635 489.594C307.32 413.611 222.538 375.552 156.369 362.547C113.994 354.22 79.2345 356.163 51.5903 365.002C23.9083 373.852 3.36035 389.616 -10.5582 408.906L-10.9993 409.521L-10.9993 411.513C-10.5511 410.863 -10.0952 410.216 -9.63196 409.575C4.15149 390.472 24.5072 374.859 51.9382 366.089C79.4073 357.305 113.976 355.38 156.148 363.668C222.171 376.644 306.798 414.643 411.966 490.52C556.666 594.92 689.357 685.565 840.081 714.95C990.827 744.338 1159.54 712.433 1376.21 571.704C1411.11 549.034 1445.41 530.149 1479 514.494L1479 513.237Z" fill="white"/>
</mask>
<g mask="url(#mask12_4193_14111)">
<path d="M1479 744.338L1479 354.221L-10.9989 354.221L-10.9989 744.338L1479 744.338Z" fill="url(#paint12_linear_4193_14111)" fill-opacity="0.2"/>
</g>
<mask id="mask13_4193_14111" style="mask-type:luminance" maskUnits="userSpaceOnUse" x="-11" y="350" width="1490" height="392">
<path d="M1479 542.052C1442.95 557.282 1405.99 576.067 1368.23 599.14C1148.06 733.667 978.805 760.888 829.205 727.42C679.577 693.945 549.541 599.752 407.881 491.487C304.698 412.63 220.998 372.248 155.214 357.427C113.086 347.935 78.2856 348.919 50.4075 356.994C23.7101 364.725 3.36084 378.958 -10.9993 396.72L-10.9993 398.55C3.26501 380.445 23.7129 365.914 50.7267 358.09C78.4257 350.067 113.035 349.096 154.963 358.544C220.605 373.334 304.153 413.649 407.188 492.394C548.959 600.743 679.105 695.012 828.954 728.536C978.834 762.067 1148.36 734.823 1368.83 600.117C1406.38 577.17 1443.14 558.47 1479 543.295L1479 542.052L1479 542.052Z" fill="white"/>
</mask>
<g mask="url(#mask13_4193_14111)">
<path d="M1479 762.068L1479 347.936L-10.9989 347.935L-10.9989 762.068L1479 762.068Z" fill="url(#paint13_linear_4193_14111)" fill-opacity="0.2"/>
</g>
<mask id="mask14_4193_14111" style="mask-type:luminance" maskUnits="userSpaceOnUse" x="-11" y="344" width="1490" height="415">
<path d="M1479 571.112C1440.61 585.715 1401.08 604.263 1360.54 627.527C1136.74 755.937 966.804 778.483 818.183 740.906C669.535 703.321 542.143 605.58 403.521 493.454C302.55 411.784 219.994 369.111 154.642 352.482C112.79 341.832 77.976 341.857 49.8866 349.159C23.9358 355.905 3.72363 368.863 -10.9993 385.357L-10.9993 387.083C3.64819 370.293 23.9521 357.084 50.1761 350.266C78.0879 343.01 112.709 342.992 154.361 353.591C219.57 370.183 301.975 412.786 402.802 494.34C541.533 606.554 669.031 704.373 817.902 742.014C966.8 779.662 1137.01 757.099 1361.11 628.519C1401.45 605.367 1440.79 586.898 1479 572.34L1479 571.112L1479 571.112Z" fill="white"/>
</mask>
<g mask="url(#mask14_4193_14111)">
<path d="M1479 779.66L1479 341.83L-10.9989 341.83L-10.9989 779.66L1479 779.66Z" fill="url(#paint14_linear_4193_14111)" fill-opacity="0.2"/>
</g>
<mask id="mask15_4193_14111" style="mask-type:luminance" maskUnits="userSpaceOnUse" x="-11" y="337" width="1490" height="439">
<path d="M1479 600.494C1438.2 614.324 1395.99 632.509 1352.51 655.889C1125.26 778.085 954.76 795.94 807.233 754.282C659.681 712.617 535.03 611.403 399.548 495.497C300.866 411.075 219.517 366.145 154.648 347.721C113.107 335.923 78.3041 334.989 50.024 341.514C24.3737 347.434 4.08801 359.488 -10.9994 375.141L-10.9994 376.797C4.0249 360.876 24.3932 348.601 50.2814 342.627C78.3822 336.143 112.991 337.079 154.334 348.821C219.061 367.205 300.262 412.061 398.804 496.364C534.389 612.356 659.143 713.651 806.924 755.38C954.73 797.117 1125.5 779.254 1353.05 656.898C1396.34 633.62 1438.37 615.495 1479 601.7L1479 600.494L1479 600.494Z" fill="white"/>
</mask>
<g mask="url(#mask15_4193_14111)">
<path d="M1479 797.12L1479 334.992L-10.9989 334.992L-10.9989 797.12L1479 797.12Z" fill="url(#paint15_linear_4193_14111)" fill-opacity="0.2"/>
</g>
<mask id="mask16_4193_14111" style="mask-type:luminance" maskUnits="userSpaceOnUse" x="-11" y="331" width="1490" height="463">
<path d="M1479 630.292C1435.71 643.193 1390.72 660.809 1344.14 684.224C1113.61 800.112 942.686 813.261 796.362 767.554C650.012 721.839 528.198 617.228 395.962 497.635C299.642 410.525 219.562 363.37 155.228 343.166C114.025 330.227 79.2621 328.335 50.8148 334.078C25.075 339.275 4.50146 350.724 -10.9989 365.903L-10.9989 367.508C4.43909 352.088 25.0854 340.441 51.0431 335.201C79.3118 329.493 113.881 331.382 154.885 344.259C219.082 364.419 299.017 411.496 395.196 498.48C527.535 618.165 649.45 722.86 796.023 768.645C942.622 814.438 1113.82 801.287 1344.65 685.247C1391.05 661.922 1435.87 644.36 1479 631.487L1479 630.292Z" fill="white"/>
</mask>
<g mask="url(#mask16_4193_14111)">
<path d="M1479 814.437L1479 328.334L-10.9989 328.334L-10.9989 814.437L1479 814.437Z" fill="url(#paint16_linear_4193_14111)" fill-opacity="0.2"/>
</g>
<mask id="mask17_4193_14111" style="mask-type:luminance" maskUnits="userSpaceOnUse" x="-11" y="324" width="1490" height="488">
<path d="M1479 660.38C1433.16 672.178 1385.27 689.163 1335.44 712.516C1101.8 822.008 930.58 830.443 785.571 780.721C640.538 730.99 521.652 623.062 392.761 499.87C298.882 410.143 220.131 360.8 156.373 338.83C115.543 324.76 80.8463 321.91 52.2505 326.867C26.0579 331.408 4.98498 342.499 -10.9993 357.519L-10.9993 359.095C4.92236 343.845 26.0608 332.57 52.4476 327.994C80.8645 323.068 115.37 325.909 156.003 339.911C219.616 361.832 298.221 411.093 391.97 500.697C520.959 623.982 639.943 731.995 785.201 781.802C930.482 831.618 1101.98 823.189 1335.92 713.554C1385.58 690.281 1433.31 673.345 1479 661.567L1479 660.38L1479 660.38Z" fill="white"/>
</mask>
<g mask="url(#mask17_4193_14111)">
<path d="M1479 831.623L1479 321.914L-10.9989 321.914L-10.9989 831.622L1479 831.623Z" fill="url(#paint17_linear_4193_14111)" fill-opacity="0.2"/>
</g>
<mask id="mask18_4193_14111" style="mask-type:luminance" maskUnits="userSpaceOnUse" x="-11" y="318" width="1490" height="512">
<path d="M1479 690.904C1430.55 701.416 1379.65 717.579 1326.4 740.768C1089.84 843.779 918.447 847.493 774.862 793.793C631.254 740.086 515.388 628.923 389.94 502.226C298.57 409.946 221.208 358.452 158.082 334.734C117.656 319.545 83.0494 315.74 54.3274 319.908C27.3429 323.824 5.55078 334.775 -10.9989 349.935L-10.9989 351.492C5.48315 336.107 27.3312 324.979 54.4919 321.037C83.0317 316.895 117.446 320.686 157.678 335.803C220.664 359.468 297.883 410.877 389.127 503.03C514.671 629.824 630.633 741.074 774.464 794.865C918.315 848.664 1089.98 844.963 1326.85 741.815C1379.94 718.696 1430.69 702.57 1479 692.073L1479 690.904L1479 690.904Z" fill="white"/>
</mask>
<g mask="url(#mask18_4193_14111)">
<path d="M1479 848.662L1479 315.738L-10.9989 315.738L-10.9989 848.662L1479 848.662Z" fill="url(#paint18_linear_4193_14111)" fill-opacity="0.2"/>
</g>
</g>
<defs>
<linearGradient id="paint0_linear_4193_14111" x1="1474.31" y1="501.137" x2="-261.075" y2="383.47" gradientUnits="userSpaceOnUse">
<stop stop-color="#C9C9C9"/>
<stop offset="1" stop-color="#737373"/>
</linearGradient>
<linearGradient id="paint1_linear_4193_14111" x1="1476.87" y1="497.199" x2="-259.956" y2="368.457" gradientUnits="userSpaceOnUse">
<stop stop-color="#C9C9C9"/>
<stop offset="1" stop-color="#737373"/>
</linearGradient>
<linearGradient id="paint2_linear_4193_14111" x1="1476.87" y1="495.004" x2="-257.701" y2="351.946" gradientUnits="userSpaceOnUse">
<stop stop-color="#C9C9C9"/>
<stop offset="1" stop-color="#737373"/>
</linearGradient>
<linearGradient id="paint3_linear_4193_14111" x1="1476.87" y1="492.687" x2="-254.505" y2="331.566" gradientUnits="userSpaceOnUse">
<stop stop-color="#C9C9C9"/>
<stop offset="1" stop-color="#737373"/>
</linearGradient>
<linearGradient id="paint4_linear_4193_14111" x1="1476.87" y1="490.088" x2="-249.751" y2="305.433" gradientUnits="userSpaceOnUse">
<stop stop-color="#C9C9C9"/>
<stop offset="1" stop-color="#737373"/>
</linearGradient>
<linearGradient id="paint5_linear_4193_14111" x1="1476.87" y1="495.468" x2="-244.668" y2="288.712" gradientUnits="userSpaceOnUse">
<stop stop-color="#C9C9C9"/>
<stop offset="1" stop-color="#737373"/>
</linearGradient>
<linearGradient id="paint6_linear_4193_14111" x1="1476.87" y1="517.543" x2="-243.17" y2="304.736" gradientUnits="userSpaceOnUse">
<stop stop-color="#C9C9C9"/>
<stop offset="1" stop-color="#737373"/>
</linearGradient>
<linearGradient id="paint7_linear_4193_14111" x1="1476.87" y1="539.66" x2="-241.508" y2="320.344" gradientUnits="userSpaceOnUse">
<stop stop-color="#C9C9C9"/>
<stop offset="1" stop-color="#737373"/>
</linearGradient>
<linearGradient id="paint8_linear_4193_14111" x1="1476.87" y1="553.737" x2="-243.48" y2="342.166" gradientUnits="userSpaceOnUse">
<stop stop-color="#C9C9C9"/>
<stop offset="1" stop-color="#737373"/>
</linearGradient>
<linearGradient id="paint9_linear_4193_14111" x1="1476.87" y1="561.803" x2="-247.392" y2="366.564" gradientUnits="userSpaceOnUse">
<stop stop-color="#C9C9C9"/>
<stop offset="1" stop-color="#737373"/>
</linearGradient>
<linearGradient id="paint10_linear_4193_14111" x1="1476.87" y1="569.839" x2="-250.461" y2="388.494" gradientUnits="userSpaceOnUse">
<stop stop-color="#C9C9C9"/>
<stop offset="1" stop-color="#737373"/>
</linearGradient>
<linearGradient id="paint11_linear_4193_14111" x1="1476.87" y1="577.843" x2="-252.91" y2="408.447" gradientUnits="userSpaceOnUse">
<stop stop-color="#C9C9C9"/>
<stop offset="1" stop-color="#737373"/>
</linearGradient>
<linearGradient id="paint12_linear_4193_14111" x1="1476.87" y1="585.834" x2="-254.896" y2="426.81" gradientUnits="userSpaceOnUse">
<stop stop-color="#C9C9C9"/>
<stop offset="1" stop-color="#737373"/>
</linearGradient>
<linearGradient id="paint13_linear_4193_14111" x1="1476.87" y1="593.807" x2="-256.529" y2="443.863" gradientUnits="userSpaceOnUse">
<stop stop-color="#C9C9C9"/>
<stop offset="1" stop-color="#737373"/>
</linearGradient>
<linearGradient id="paint14_linear_4193_14111" x1="1476.87" y1="601.771" x2="-257.886" y2="459.831" gradientUnits="userSpaceOnUse">
<stop stop-color="#C9C9C9"/>
<stop offset="1" stop-color="#737373"/>
</linearGradient>
<linearGradient id="paint15_linear_4193_14111" x1="1476.87" y1="609.359" x2="-259.068" y2="474.791" gradientUnits="userSpaceOnUse">
<stop stop-color="#C9C9C9"/>
<stop offset="1" stop-color="#737373"/>
</linearGradient>
<linearGradient id="paint16_linear_4193_14111" x1="1476.87" y1="616.935" x2="-260.066" y2="488.93" gradientUnits="userSpaceOnUse">
<stop stop-color="#C9C9C9"/>
<stop offset="1" stop-color="#737373"/>
</linearGradient>
<linearGradient id="paint17_linear_4193_14111" x1="1476.87" y1="624.529" x2="-260.915" y2="502.393" gradientUnits="userSpaceOnUse">
<stop stop-color="#C9C9C9"/>
<stop offset="1" stop-color="#737373"/>
</linearGradient>
<linearGradient id="paint18_linear_4193_14111" x1="1476.87" y1="632.136" x2="-261.644" y2="515.272" gradientUnits="userSpaceOnUse">
<stop stop-color="#C9C9C9"/>
<stop offset="1" stop-color="#737373"/>
</linearGradient>
<clipPath id="clip0_4193_14111">
<rect width="1341" height="800" fill="white"/>
</clipPath>
</defs>
</svg>
